<svg xmlns="http://www.w3.org/2000/svg" width="400" height="132" viewBox="0 0 400 132" role="img" aria-label="Portfolio: alisoleimaninet.github.io">
<defs><linearGradient id="rail" x1="0" y1="0" x2="0" y2="1"><stop offset="0" stop-color="#0891b2"/><stop offset="1" stop-color="#7c3aed"/></linearGradient><radialGradient id="glow" cx="1" cy="0" r="1"><stop offset="0" stop-color="#0891b2" stop-opacity=".16"/><stop offset=".6" stop-color="#0891b2" stop-opacity="0"/></radialGradient><clipPath id="clip"><rect x=".5" y=".5" width="399" height="131" rx="14"/></clipPath></defs><rect x=".5" y=".5" width="399" height="131" rx="14" fill="#ffffff" stroke="rgba(15,23,42,0.12)"/><rect x=".5" y=".5" width="399" height="131" rx="14" fill="url(#glow)"/>
<rect x="22" y="22" width="44" height="44" rx="12" fill="rgba(8,145,178,0.08)" stroke="rgba(8,145,178,0.35)"/>
<g transform="translate(32,32) scale(1)" fill="none" stroke="#0891b2" stroke-width="1.8" stroke-linecap="round" stroke-linejoin="round"><circle cx="12" cy="12" r="9"/><path d="M3 12h18M12 3c3 3.2 3 14.8 0 18M12 3c-3 3.2-3 14.8 0 18"/></g>
<text x="80" y="42" font-family="'Segoe UI', -apple-system, BlinkMacSystemFont, 'Helvetica Neue', Helvetica, Arial, sans-serif" font-size="20" font-weight="700" fill="#0f172a">Portfolio</text>
<text x="80" y="62" font-family="'Segoe UI', -apple-system, BlinkMacSystemFont, 'Helvetica Neue', Helvetica, Arial, sans-serif" font-size="13.5" fill="#526077">Interactive 3D site</text>
<text x="22" y="106" font-family="'Cascadia Code', 'SFMono-Regular', Consolas, 'Liberation Mono', 'Courier New', monospace" font-size="14" font-weight="400" fill="#0891b2" text-anchor="start" textLength="210.0" lengthAdjust="spacingAndGlyphs" >alisoleimaninet.github.io</text>
<g transform="translate(364,24) scale(0.5833333333333334)" fill="none" stroke="#526077" stroke-width="2.2" stroke-linecap="round" stroke-linejoin="round"><path d="M7 17 17 7M9 7h8v8"/></g>
</svg>